<?xml version="1.0" encoding="UTF-8"?>
<mxfile host="app.diagrams.net" modified="2023-06-01T00:00:00Z" agent="5.0 (Windows)" etag="G3iJUvi7aGzLKFsw0Osd" version="14.6.14">
  <diagram name="Page-1" id="Qdi2DI1kFz6UVuADKH3_">
    <mxGraphModel dx="800" dy="600" grid="1" gridSize="10" guides="1" tooltips="1" connect="1" arrows="1" fold="1" page="1" pageScale="1" pageWidth="827" pageHeight="1169" math="0" shadow="0">
      <root>
        <mxCell id="0" />
        <mxCell id="1" parent="0" />
        <mxCell id="3nSpNJwN5ou-t8xbmGV4-6" value="" style="group" vertex="1" connectable="0" parent="1">
          <mxGeometry x="20" y="20" width="660" height="510" as="geometry" />
        </mxCell>
        <mxCell id="3nSpNJwN5ou-t8xbmGV4-7" value="" style="group" vertex="1" connectable="0" parent="3nSpNJwN5ou-t8xbmGV4-6">
          <mxGeometry x="20" y="180" width="620" height="250" as="geometry" />
        </mxCell>
        <mxCell id="4-n6BC9Xnp6Skxk2cHsS-1" value="Edit Posts" style="rounded=0;whiteSpace=wrap;html=1;" vertex="1" connectable="0" parent="3nSpNJwN5ou-t8xbmGV4-6">
          <mxGeometry x="40" y="40" width="120" height="40" as="geometry" />
        </mxCell>
        <mxCell id="4-n6BC9Xnp6Skxk2cHsS-2" value="Faculty Computing’s Students" style="rounded=0;whiteSpace=wrap;html=1;" vertex="1" connectable="0" parent="3nSpNJwN5ou-t8xbmGV4-6">
          <mxGeometry x="220" y="40" width="120" height="40" as="geometry" />
        </mxCell>
        <mxCell id="4-n6BC9Xnp6Skxk2cHsS-3" value="Faculty Computing’s Lecturers" style="rounded=0;whiteSpace=wrap;html=1;" vertex="1" connectable="0" parent="3nSpNJwN5ou-t8xbmGV4-6">
          <mxGeometry x="400" y="40" width="120" height="40" as="geometry" />
        </mxCell>
        <mxCell id="4-n6BC9Xnp6Skxk2cHsS-4" value="Has an active student engagement system account\nUser is within a stable internet environment." style="rounded=0;whiteSpace=wrap;html=1;" vertex="1" connectable="0" parent="3nSpNJwN
